<mxfile host="app.diagrams.net" modified="2023-03-23T14:25:47.647Z" agent="5.0 (Windows NT 10.0; Win64; x64) AppleWebKit/537.36 (KHTML, like Gecko) Chrome/111.0.0.0 Safari/537.36" etag="vAO95IAaKZQGer4itW-n" version="21.0.10" type="github">
  <diagram name="第 1 页" id="EO9X0VToAGvaGt1d5-xA">
    <mxGraphModel dx="1221" dy="775" grid="1" gridSize="10" guides="1" tooltips="1" connect="1" arrows="1" fold="1" page="1" pageScale="1" pageWidth="827" pageHeight="1169" math="0" shadow="0">
      <root>
        <mxCell id="0" />
        <mxCell id="1" parent="0" />
        <mxCell id="dp0k6jpF9BTwIP1lLvI8-1" value="" style="swimlane;html=1;fontStyle=0;childLayout=stackLayout;horizontal=1;startSize=26;fillColor=#e0e0e0;horizontalStack=0;resizeParent=1;resizeLast=0;collapsible=1;marginBottom=0;swimlaneFillColor=#ffffff;align=center;rounded=1;shadow=0;comic=0;labelBackgroundColor=none;strokeWidth=1;fontFamily=Verdana;fontSize=12" vertex="1" parent="1">
          <mxGeometry x="355.5" y="250" width="314.5" height="211" as="geometry">
            <mxRectangle x="460" y="340" width="50" height="40" as="alternateBounds" />
          </mxGeometry>
        </mxCell>
        <mxCell id="dp0k6jpF9BTwIP1lLvI8-2" value="&lt;div style=&quot;&quot;&gt;&lt;span style=&quot;font-size: 18px; background-color: initial;&quot;&gt;培训信息&lt;/span&gt;&lt;span style=&quot;background-color: initial; font-size: 18px;&quot;&gt;管理系统&lt;/span&gt;&lt;/div&gt;" style="text;html=1;align=center;verticalAlign=bottom;resizable=0;points=[];autosize=1;strokeColor=none;fillColor=none;rotation=0;" vertex="1" parent="dp0k6jpF9BTwIP1lLvI8-1">
          <mxGeometry y="26" width="314.5" height="40" as="geometry" />
        </mxCell>
        <mxCell id="dp0k6jpF9BTwIP1lLvI8-3" style="edgeStyle=orthogonalEdgeStyle;rounded=0;orthogonalLoop=1;jettySize=auto;html=1;exitX=1;exitY=0.5;exitDx=0;exitDy=0;" edge="1" parent="1" source="dp0k6jpF9BTwIP1lLvI8-4">
          <mxGeometry relative="1" as="geometry">
            <mxPoint x="360" y="320" as="targetPoint" />
            <Array as="points">
              <mxPoint x="340" y="320" />
              <mxPoint x="340" y="320" />
            </Array>
          </mxGeometry>
        </mxCell>
        <mxCell id="dp0k6jpF9BTwIP1lLvI8-4" value="&lt;font style=&quot;font-size: 18px;&quot;&gt;软件&lt;br&gt;公司&lt;/font&gt;" style="html=1;dashed=0;whiteSpace=wrap;" vertex="1" parent="1">
          <mxGeometry x="120" y="280" width="80" height="80" as="geometry" />
        </mxCell>
        <mxCell id="dp0k6jpF9BTwIP1lLvI8-5" style="edgeStyle=orthogonalEdgeStyle;rounded=0;orthogonalLoop=1;jettySize=auto;html=1;exitX=1;exitY=0.5;exitDx=0;exitDy=0;" edge="1" parent="1" source="dp0k6jpF9BTwIP1lLvI8-6">
          <mxGeometry relative="1" as="geometry">
            <mxPoint x="360" y="410" as="targetPoint" />
          </mxGeometry>
        </mxCell>
        <mxCell id="dp0k6jpF9BTwIP1lLvI8-6" value="&lt;span style=&quot;font-size: 18px;&quot;&gt;经理&lt;/span&gt;" style="html=1;dashed=0;whiteSpace=wrap;" vertex="1" parent="1">
          <mxGeometry x="120" y="370" width="80" height="80" as="geometry" />
        </mxCell>
        <mxCell id="dp0k6jpF9BTwIP1lLvI8-7" style="edgeStyle=orthogonalEdgeStyle;rounded=0;orthogonalLoop=1;jettySize=auto;html=1;exitX=0.5;exitY=1;exitDx=0;exitDy=0;entryX=0.5;entryY=0;entryDx=0;entryDy=0;" edge="1" parent="1" source="dp0k6jpF9BTwIP1lLvI8-8">
          <mxGeometry relative="1" as="geometry">
            <mxPoint x="400" y="250" as="targetPoint" />
          </mxGeometry>
        </mxCell>
        <mxCell id="dp0k6jpF9BTwIP1lLvI8-8" value="&lt;span style=&quot;font-size: 18px;&quot;&gt;执行人&lt;/span&gt;" style="html=1;dashed=0;whiteSpace=wrap;" vertex="1" parent="1">
          <mxGeometry x="360" y="40" width="80" height="80" as="geometry" />
        </mxCell>
        <mxCell id="dp0k6jpF9BTwIP1lLvI8-9" style="edgeStyle=orthogonalEdgeStyle;rounded=0;orthogonalLoop=1;jettySize=auto;html=1;exitX=0.5;exitY=1;exitDx=0;exitDy=0;entryX=0.173;entryY=0;entryDx=0;entryDy=0;entryPerimeter=0;" edge="1" parent="1" source="dp0k6jpF9BTwIP1lLvI8-10">
          <mxGeometry relative="1" as="geometry">
            <mxPoint x="629.9085" y="250" as="targetPoint" />
          </mxGeometry>
        </mxCell>
        <mxCell id="dp0k6jpF9BTwIP1lLvI8-10" value="&lt;span style=&quot;font-size: 18px;&quot;&gt;讲师&lt;/span&gt;" style="html=1;dashed=0;whiteSpace=wrap;" vertex="1" parent="1">
          <mxGeometry x="590" y="40" width="80" height="80" as="geometry" />
        </mxCell>
        <mxCell id="dp0k6jpF9BTwIP1lLvI8-11" style="edgeStyle=orthogonalEdgeStyle;rounded=0;orthogonalLoop=1;jettySize=auto;html=1;exitX=0.5;exitY=1;exitDx=0;exitDy=0;entryX=0.809;entryY=0;entryDx=0;entryDy=0;entryPerimeter=0;" edge="1" parent="1" source="dp0k6jpF9BTwIP1lLvI8-12">
          <mxGeometry relative="1" as="geometry">
            <mxPoint x="512.6804999999999" y="250" as="targetPoint" />
          </mxGeometry>
        </mxCell>
        <mxCell id="dp0k6jpF9BTwIP1lLvI8-12" value="&lt;span style=&quot;font-size: 18px;&quot;&gt;现场&lt;br&gt;工作人员&lt;/span&gt;" style="html=1;dashed=0;whiteSpace=wrap;" vertex="1" parent="1">
          <mxGeometry x="472.75" y="40" width="80" height="80" as="geometry" />
        </mxCell>
        <mxCell id="dp0k6jpF9BTwIP1lLvI8-13" value="&lt;span style=&quot;font-size: 18px;&quot;&gt;学员&lt;/span&gt;" style="html=1;dashed=0;whiteSpace=wrap;" vertex="1" parent="1">
          <mxGeometry x="590" y="560" width="80" height="80" as="geometry" />
        </mxCell>
        <mxCell id="dp0k6jpF9BTwIP1lLvI8-14" value="&lt;span style=&quot;font-size: 18px;&quot;&gt;老学员&lt;/span&gt;" style="html=1;dashed=0;whiteSpace=wrap;" vertex="1" parent="1">
          <mxGeometry x="355.5" y="560" width="80" height="80" as="geometry" />
        </mxCell>
        <mxCell id="dp0k6jpF9BTwIP1lLvI8-15" value="&lt;span style=&quot;font-size: 18px;&quot;&gt;邮件&lt;br&gt;系统&lt;/span&gt;" style="html=1;dashed=0;whiteSpace=wrap;" vertex="1" parent="1">
          <mxGeometry x="890" y="370" width="80" height="80" as="geometry" />
        </mxCell>
        <mxCell id="dp0k6jpF9BTwIP1lLvI8-16" value="&lt;span style=&quot;font-size: 18px;&quot;&gt;公司&lt;br&gt;网站&lt;/span&gt;" style="html=1;dashed=0;whiteSpace=wrap;" vertex="1" parent="1">
          <mxGeometry x="890" y="280" width="80" height="80" as="geometry" />
        </mxCell>
        <mxCell id="dp0k6jpF9BTwIP1lLvI8-17" value="&lt;font style=&quot;font-size: 14px;&quot;&gt;培训申请、内容、费用&lt;/font&gt;" style="text;html=1;align=center;verticalAlign=middle;resizable=0;points=[];autosize=1;strokeColor=none;fillColor=none;" vertex="1" parent="1">
          <mxGeometry x="200" y="285" width="160" height="30" as="geometry" />
        </mxCell>
        <mxCell id="dp0k6jpF9BTwIP1lLvI8-18" value="&lt;font style=&quot;font-size: 14px;&quot;&gt;培训计划、讲师资料&lt;/font&gt;" style="text;html=1;align=center;verticalAlign=middle;resizable=0;points=[];autosize=1;strokeColor=none;fillColor=none;" vertex="1" parent="1">
          <mxGeometry x="200" y="380" width="150" height="30" as="geometry" />
        </mxCell>
        <mxCell id="dp0k6jpF9BTwIP1lLvI8-19" value="&lt;font style=&quot;font-size: 14px;&quot;&gt;培训课程内容、&lt;br&gt;时间、地点&lt;/font&gt;" style="text;html=1;align=center;verticalAlign=middle;resizable=0;points=[];autosize=1;strokeColor=none;fillColor=none;" vertex="1" parent="1">
          <mxGeometry x="520" y="150" width="120" height="50" as="geometry" />
        </mxCell>
        <mxCell id="dp0k6jpF9BTwIP1lLvI8-20" value="Text" style="text;html=1;align=center;verticalAlign=middle;resizable=0;points=[];autosize=1;strokeColor=none;fillColor=none;" vertex="1" parent="1">
          <mxGeometry x="265" y="125" width="50" height="30" as="geometry" />
        </mxCell>
      </root>
    </mxGraphModel>
  </diagram>
</mxfile>
